<?xml version="1.0" standalone="yes"?>
<svg width="1080" height="1080">
<path style="fill:#000000; stroke:none;" d="M0 0L0 1080L1080 1080L1080 0L0 0z"/>
<path style="fill:#3b3b3b; stroke:none;" d="M278 265L278 826L279 826L279 428L279 314C279 300.224 283.306 277.645 278 265z"/>
<path style="fill:#ffffff; stroke:none;" d="M279 265L279 826L465 826L465 731C465 718.917 461.472 700.352 465.603 689C467.686 683.274 473.845 678.428 477.831 674C487.487 663.272 498.7 652.785 507 641L508 641C537.19 687.873 575.722 730.798 608.873 775C617.904 787.041 627.094 798.962 636.127 811C639.334 815.275 643.228 823.215 648.3 825.397C653.555 827.657 662.342 826 668 826L712 826L866 826C852.566 799.026 827.974 774.134 809.873 750L692.873 594L647.873 534C644.261 529.183 632.51 518.215 632.965 512C633.385 506.274 644.132 498.078 647.911 494C661.972 478.827 676.035 463.516 689.714 448C726.608 406.153 764.776 365.4 802.17 324C819.515 304.796 840.389 286.368 855 265L711 265L669 265L650.089 265.603L633.911 282L596.83 323L465 468L465 265L279 265z"/>
<path style="fill:#a3a3a3; stroke:none;" d="M646 268L647 269L646 268z"/>
<path style="fill:#636363; stroke:none;" d="M852 268L853 269L852 268z"/>
<path style="fill:#898989; stroke:none;" d="M645 269L646 270L645 269z"/>
<path style="fill:#808080; stroke:none;" d="M851 269L852 270L851 269z"/>
<path style="fill:#6b6b6b; stroke:none;" d="M644 270L645 271L644 270z"/>
<path style="fill:#9c9c9c; stroke:none;" d="M850 270L851 271L850 270M636 279L637 280L636 279z"/>
<path style="fill:#636363; stroke:none;" d="M842 279L843 280L842 279z"/>
<path style="fill:#7f7f7f; stroke:none;" d="M635 280L636 281L635 280z"/>
<path style="fill:#818181; stroke:none;" d="M841 280L842 281L841 280z"/>
<path style="fill:#636363; stroke:none;" d="M634 281L635 282L634 281z"/>
<path style="fill:#9c9c9c; stroke:none;" d="M840 281L841 282L840 281z"/>
<path style="fill:#949494; stroke:none;" d="M626 290L627 291L626 290z"/>
<path style="fill:#636363; stroke:none;" d="M832 290L833 291L832 290z"/>
<path style="fill:#757575; stroke:none;" d="M625 291L626 292L625 291z"/>
<path style="fill:#818181; stroke:none;" d="M831 291L832 292L831 291z"/>
<path style="fill:#5c5c5c; stroke:none;" d="M624 292L625 293L624 292z"/>
<path style="fill:#9c9c9c; stroke:none;" d="M830 292L831 293L830 292z"/>
<path style="fill:#a3a3a3; stroke:none;" d="M617 300L618 301L617 300z"/>
<path style="fill:#838383; stroke:none;" d="M616 301L617 302L616 301z"/>
<path style="fill:#636363; stroke:none;" d="M822 301L823 302L822 301M615 302L616 303L615 302z"/>
<path style="fill:#828282; stroke:none;" d="M821 302L822 303L821 302z"/>
<path style="fill:#9c9c9c; stroke:none;" d="M820 303L821 304L820 303z"/>
<path style="fill:#949494; stroke:none;" d="M607 311L608 312L607 311z"/>
<path style="fill:#7a7a7a; stroke:none;" d="M606 312L607 313L606 312z"/>
<path style="fill:#6b6b6b; stroke:none;" d="M812 312L813 313L812 312z"/>
<path style="fill:#5c5c5c; stroke:none;" d="M605 313L606 314L605 313z"/>
<path style="fill:#838383; stroke:none;" d="M811 313L812 314L811 313z"/>
<path style="fill:#9c9c9c; stroke:none;" d="M810 314L811 315L810 314z"/>
<path style="fill:#a3a3a3; stroke:none;" d="M598 321L599 322L598 321z"/>
<path style="fill:#888888; stroke:none;" d="M597 322L598 323L597 322z"/>
<path style="fill:#6b6b6b; stroke:none;" d="M596 323L597 324L596 323M802 323L803 324L802 323z"/>
<path style="fill:#848484; stroke:none;" d="M801 324L802 325L801 324z"/>
<path style="fill:#9c9c9c; stroke:none;" d="M800 325L801 326L800 325M588 332L589 333L588 332z"/>
<path style="fill:#7e7e7e; stroke:none;" d="M587 333L588 334L587 333z"/>
<path style="fill:#636363; stroke:none;" d="M586 334L587 335L586 334z"/>
<path style="fill:#6b6b6b; stroke:none;" d="M792 334L793 335L792 334z"/>
<path style="fill:#858585; stroke:none;" d="M791 335L792 336L791 335z"/>
<path style="fill:#a3a3a3; stroke:none;" d="M790 336L791 337L790 336z"/>
<path style="fill:#949494; stroke:none;" d="M578 343L579 344L578 343z"/>
<path style="fill:#747474; stroke:none;" d="M577 344L578 345L577 344z"/>
<path style="fill:#5c5c5c; stroke:none;" d="M576 345L577 346L576 345z"/>
<path style="fill:#6b6b6b; stroke:none;" d="M782 345L783 346L782 345z"/>
<path style="fill:#868686; stroke:none;" d="M781 346L782 347L781 346z"/>
<path style="fill:#a3a3a3; stroke:none;" d="M780 347L781 348L780 347z"/>
<path style="fill:#9c9c9c; stroke:none;" d="M569 353L570 354L569 353z"/>
<path style="fill:#828282; stroke:none;" d="M568 354L569 355L568 354z"/>
<path style="fill:#636363; stroke:none;" d="M567 355L568 356L567 355z"/>
<path style="fill:#6b6b6b; stroke:none;" d="M772 356L773 357L772 356z"/>
<path style="fill:#878787; stroke:none;" d="M771 357L772 358L771 357z"/>
<path style="fill:#a3a3a3; stroke:none;" d="M770 358L771 359L770 358z"/>
<path style="fill:#949494; stroke:none;" d="M559 364L560 365L559 364z"/>
<path style="fill:#797979; stroke:none;" d="M558 365L559 366L558 365z"/>
<path style="fill:#5c5c5c; stroke:none;" d="M557 366L558 367L557 366z"/>
<path style="fill:#6b6b6b; stroke:none;" d="M762 367L763 368L762 367z"/>
<path style="fill:#888888; stroke:none;" d="M761 368L762 369L761 368z"/>
<path style="fill:#a3a3a3; stroke:none;" d="M760 369L761 370L760 369M550 374L551 375L550 374z"/>
<path style="fill:#878787; stroke:none;" d="M549 375L550 376L549 375z"/>
<path style="fill:#6b6b6b; stroke:none;" d="M548 376L549 377L548 376M752 378L753 379L752 378z"/>
<path style="fill:#898989; stroke:none;" d="M751 379L752 380L751 379z"/>
<path style="fill:#a3a3a3; stroke:none;" d="M750 380L751 381L750 380z"/>
<path style="fill:#9c9c9c; stroke:none;" d="M540 385L541 386L540 385z"/>
<path style="fill:#7d7d7d; stroke:none;" d="M539 386L540 387L539 386z"/>
<path style="fill:#636363; stroke:none;" d="M538 387L539 388L538 387z"/>
<path style="fill:#6b6b6b; stroke:none;" d="M742 389L743 390L742 389z"/>
<path style="fill:#8a8a8a; stroke:none;" d="M741 390L742 391L741 390z"/>
<path style="fill:#a3a3a3; stroke:none;" d="M740 391L741 392L740 391z"/>
<path style="fill:#8b8b8b; stroke:none;" d="M530 396L531 397L530 396z"/>
<path style="fill:#6b6b6b; stroke:none;" d="M529 397L530 398L529 397z"/>
<path style="fill:#5c5c5c; stroke:none;" d="M733 399L734 400L733 399z"/>
<path style="fill:#6b6b6b; stroke:none;" d="M732 400L733 401L732 400z"/>
<path style="fill:#8b8b8b; stroke:none;" d="M731 401L732 402L731 401z"/>
<path style="fill:#a3a3a3; stroke:none;" d="M730 402L731 403L730 402z"/>
<path style="fill:#9c9c9c; stroke:none;" d="M521 406L522 407L521 406z"/>
<path style="fill:#828282; stroke:none;" d="M520 407L521 408L520 407z"/>
<path style="fill:#636363; stroke:none;" d="M519 408L520 409L519 408z"/>
<path style="fill:#5c5c5c; stroke:none;" d="M723 410L724 411L723 410z"/>
<path style="fill:#747474; stroke:none;" d="M722 411L723 412L722 411z"/>
<path style="fill:#8d8d8d; stroke:none;" d="M721 412L722 413L721 412z"/>
<path style="fill:#a3a3a3; stroke:none;" d="M720 413L721 414L720 413z"/>
<path style="fill:#949494; stroke:none;" d="M511 417L512 418L511 417z"/>
<path style="fill:#787878; stroke:none;" d="M510 418L511 419L510 418z"/>
<path style="fill:#5c5c5c; stroke:none;" d="M509 419L510 420L509 419M713 421L714 422L713 421z"/>
<path style="fill:#757575; stroke:none;" d="M712 422L713 423L712 422z"/>
<path style="fill:#949494; stroke:none;" d="M711 423L712 424L711 423z"/>
<path style="fill:#a3a3a3; stroke:none;" d="M710 424L711 425L710 424M502 427L503 428L502 427z"/>
<path style="fill:#868686; stroke:none;" d="M501 428L502 429L501 428z"/>
<path style="fill:#6b6b6b; stroke:none;" d="M500 429L501 430L500 429z"/>
<path style="fill:#5c5c5c; stroke:none;" d="M703 432L704 433L703 432z"/>
<path style="fill:#767676; stroke:none;" d="M702 433L703 434L702 433z"/>
<path style="fill:#949494; stroke:none;" d="M701 434L702 435L701 434z"/>
<path style="fill:#9c9c9c; stroke:none;" d="M492 438L493 439L492 438z"/>
<path style="fill:#7c7c7c; stroke:none;" d="M491 439L492 440L491 439z"/>
<path style="fill:#636363; stroke:none;" d="M490 440L491 441L490 440z"/>
<path style="fill:#5c5c5c; stroke:none;" d="M693 443L694 444L693 443z"/>
<path style="fill:#777777; stroke:none;" d="M692 444L693 445L692 444z"/>
<path style="fill:#949494; stroke:none;" d="M691 445L692 446L691 445z"/>
<path style="fill:#a3a3a3; stroke:none;" d="M483 448L484 449L483 448z"/>
<path style="fill:#8b8b8b; stroke:none;" d="M482 449L483 450L482 449z"/>
<path style="fill:#6b6b6b; stroke:none;" d="M481 450L482 451L481 450z"/>
<path style="fill:#5c5c5c; stroke:none;" d="M683 454L684 455L683 454z"/>
<path style="fill:#787878; stroke:none;" d="M682 455L683 456L682 455z"/>
<path style="fill:#949494; stroke:none;" d="M681 456L682 457L681 456z"/>
<path style="fill:#9c9c9c; stroke:none;" d="M473 459L474 460L473 459z"/>
<path style="fill:#818181; stroke:none;" d="M472 460L473 461L472 460z"/>
<path style="fill:#636363; stroke:none;" d="M471 461L472 462L471 461z"/>
<path style="fill:#5c5c5c; stroke:none;" d="M673 465L674 466L673 465z"/>
<path style="fill:#797979; stroke:none;" d="M672 466L673 467L672 466z"/>
<path style="fill:#949494; stroke:none;" d="M671 467L672 468L671 467z"/>
<path style="fill:#a6a6a6; stroke:none;" d="M670 468L671 469L670 468z"/>
<path style="fill:#5c5c5c; stroke:none;" d="M663 476L664 477L663 476z"/>
<path style="fill:#7a7a7a; stroke:none;" d="M662 477L663 478L662 477z"/>
<path style="fill:#949494; stroke:none;" d="M661 478L662 479L661 478z"/>
<path style="fill:#5c5c5c; stroke:none;" d="M653 487L654 488L653 487z"/>
<path style="fill:#7a7a7a; stroke:none;" d="M652 488L653 489L652 488z"/>
<path style="fill:#949494; stroke:none;" d="M651 489L652 490L651 489z"/>
<path style="fill:#636363; stroke:none;" d="M643 498L644 499L643 498z"/>
<path style="fill:#7b7b7b; stroke:none;" d="M642 499L643 500L642 499z"/>
<path style="fill:#949494; stroke:none;" d="M641 500L642 501L641 500z"/>
<path style="fill:#636363; stroke:none;" d="M633 509L634 510L633 509z"/>
<path style="fill:#7c7c7c; stroke:none;" d="M632 510L633 511L632 510z"/>
<path style="fill:#808080; stroke:none;" d="M631.333 511.667L631.667 512.333L631.333 511.667M634 516L635 517L634 516M637 520L638 521L637 520M640 524L641 525L640 524M643 528L644 529L643 528z"/>
<path style="fill:#7f7f7f; stroke:none;" d="M646 532L647 533L646 532M649 536L650 537L649 536M652 540L653 541L652 540M655 544L656 545L655 544M658 548L659 549L658 548z"/>
<path style="fill:#7e7e7e; stroke:none;" d="M661 552L662 553L661 552M664 556L665 557L664 556M667 560L668 561L667 560M670 564L671 565L670 564z"/>
<path style="fill:#7d7d7d; stroke:none;" d="M673 568L674 569L673 568M676 572L677 573L676 572M679 576L680 577L679 576M682 580L683 581L682 580M685 584L686 585L685 584z"/>
<path style="fill:#7c7c7c; stroke:none;" d="M688 588L689 589L688 588M691 592L692 593L691 592M694 596L695 597L694 596M697 600L698 601L697 600z"/>
<path style="fill:#7b7b7b; stroke:none;" d="M700 604L701 605L700 604M703 608L704 609L703 608M706 612L707 613L706 612M709 616L710 617L709 616M712 620L713 621L712 620z"/>
<path style="fill:#7a7a7a; stroke:none;" d="M715 624L716 625L715 624M718 628L719 629L718 628M721 632L722 633L721 632M724 636L725 637L724 636z"/>
<path style="fill:#787878; stroke:none;" d="M727 640L728 641L727 640z"/>
<path style="fill:#707070; stroke:none;" d="M510 644L511 645L510 644z"/>
<path style="fill:#797979; stroke:none;" d="M730 644L731 645L730 644z"/>
<path style="fill:#6b6b6b; stroke:none;" d="M513 648L514 649L513 648z"/>
<path style="fill:#797979; stroke:none;" d="M733 648L734 649L733 648z"/>
<path style="fill:#6b6b6b; stroke:none;" d="M499 649L500 650L499 649z"/>
<path style="fill:#8a8a8a; stroke:none;" d="M498 650L499 651L498 650z"/>
<path style="fill:#666666; stroke:none;" d="M516 652L517 653L516 652z"/>
<path style="fill:#797979; stroke:none;" d="M736 652L737 653L736 652z"/>
<path style="fill:#a9a9a9; stroke:none;" d="M517 653L518 654L517 653z"/>
<path style="fill:#616161; stroke:none;" d="M519 656L520 657L519 656z"/>
<path style="fill:#797979; stroke:none;" d="M739 656L740 657L739 656z"/>
<path style="fill:#a1a1a1; stroke:none;" d="M520 657L521 658L520 657z"/>
<path style="fill:#6b6b6b; stroke:none;" d="M490 659L491 660L490 659z"/>
<path style="fill:#8b8b8b; stroke:none;" d="M489 660L490 661L489 660z"/>
<path style="fill:#565656; stroke:none;" d="M522 660L523 661L522 660z"/>
<path style="fill:#787878; stroke:none;" d="M742 660L743 661L742 660z"/>
<path style="fill:#9b9b9b; stroke:none;" d="M523 661L524 662L523 661z"/>
<path style="fill:#565656; stroke:none;" d="M525 664L526 665L525 664z"/>
<path style="fill:#787878; stroke:none;" d="M745 664L746 665L745 664z"/>
<path style="fill:#969696; stroke:none;" d="M526 665L527 666L526 665z"/>
<path style="fill:#787878; stroke:none;" d="M748 668L749 669L748 668z"/>
<path style="fill:#6b6b6b; stroke:none;" d="M481 669L482 670L481 669z"/>
<path style="fill:#919191; stroke:none;" d="M529 669L530 670L529 669z"/>
<path style="fill:#8b8b8b; stroke:none;" d="M480 670L481 671L480 670z"/>
<path style="fill:#787878; stroke:none;" d="M751 672L752 673L751 672z"/>
<path style="fill:#8c8c8c; stroke:none;" d="M532 673L533 674L532 673z"/>
<path style="fill:#787878; stroke:none;" d="M754 676L755 677L754 676z"/>
<path style="fill:#878787; stroke:none;" d="M535 677L536 678L535 677z"/>
<path style="fill:#6b6b6b; stroke:none;" d="M472 679L473 680L472 679z"/>
<path style="fill:#8c8c8c; stroke:none;" d="M471 680L472 681L471 680z"/>
<path style="fill:#777777; stroke:none;" d="M757 680L758 681L757 680z"/>
<path style="fill:#828282; stroke:none;" d="M538 681L539 682L538 681z"/>
<path style="fill:#777777; stroke:none;" d="M760 684L761 685L760 684z"/>
<path style="fill:#7d7d7d; stroke:none;" d="M541 685L542 686L541 685z"/>
<path style="fill:#777777; stroke:none;" d="M763 688L764 689L763 688M544 689L545 690L544 689M766 692L767 693L766 692z"/>
<path style="fill:#727272; stroke:none;" d="M547 693L548 694L547 693z"/>
<path style="fill:#767676; stroke:none;" d="M769 696L770 697L769 696z"/>
<path style="fill:#6d6d6d; stroke:none;" d="M550 697L551 698L550 697z"/>
<path style="fill:#767676; stroke:none;" d="M772 700L773 701L772 700z"/>
<path style="fill:#686868; stroke:none;" d="M553 701L554 702L553 701z"/>
<path style="fill:#a9a9a9; stroke:none;" d="M554 702L555 703L554 702z"/>
<path style="fill:#767676; stroke:none;" d="M775 704L776 705L775 704z"/>
<path style="fill:#636363; stroke:none;" d="M556 705L557 706L556 705z"/>
<path style="fill:#a9a9a9; stroke:none;" d="M557 706L558 707L557 706z"/>
<path style="fill:#767676; stroke:none;" d="M778 708L779 709L778 708z"/>
<path style="fill:#565656; stroke:none;" d="M559 709L560 710L559 709z"/>
<path style="fill:#9d9d9d; stroke:none;" d="M560 710L561 711L560 710z"/>
<path style="fill:#767676; stroke:none;" d="M781 712L782 713L781 712z"/>
<path style="fill:#565656; stroke:none;" d="M562 713L563 714L562 713z"/>
<path style="fill:#989898; stroke:none;" d="M563 714L564 715L563 714z"/>
<path style="fill:#757575; stroke:none;" d="M784 716L785 717L784 716z"/>
<path style="fill:#939393; stroke:none;" d="M566 718L567 719L566 718z"/>
<path style="fill:#757575; stroke:none;" d="M787 720L788 721L787 720z"/>
<path style="fill:#8e8e8e; stroke:none;" d="M569 722L570 723L569 722z"/>
<path style="fill:#757575; stroke:none;" d="M790 724L791 725L790 724z"/>
<path style="fill:#898989; stroke:none;" d="M572 726L573 727L572 726z"/>
<path style="fill:#757575; stroke:none;" d="M793 728L794 729L793 728z"/>
<path style="fill:#848484; stroke:none;" d="M575 730L576 731L575 730z"/>
<path style="fill:#747474; stroke:none;" d="M796 732L797 733L796 732z"/>
<path style="fill:#7f7f7f; stroke:none;" d="M578 734L579 735L578 734z"/>
<path style="fill:#747474; stroke:none;" d="M799 736L800 737L799 736z"/>
<path style="fill:#797979; stroke:none;" d="M581 738L582 739L581 738z"/>
<path style="fill:#747474; stroke:none;" d="M802 740L803 741L802 740M584 742L585 743L584 742M805 744L806 745L805 744z"/>
<path style="fill:#6f6f6f; stroke:none;" d="M587 746L588 747L587 746z"/>
<path style="fill:#747474; stroke:none;" d="M808 748L809 749L808 748z"/>
<path style="fill:#6a6a6a; stroke:none;" d="M590 750L591 751L590 750z"/>
<path style="fill:#737373; stroke:none;" d="M811 752L812 753L811 752z"/>
<path style="fill:#656565; stroke:none;" d="M593 754L594 755L593 754z"/>
<path style="fill:#a9a9a9; stroke:none;" d="M594 755L595 756L594 755z"/>
<path style="fill:#737373; stroke:none;" d="M814 756L815 757L814 756z"/>
<path style="fill:#606060; stroke:none;" d="M596 758L597 759L596 758z"/>
<path style="fill:#a1a1a1; stroke:none;" d="M597 759L598 760L597 759z"/>
<path style="fill:#737373; stroke:none;" d="M817 760L818 761L817 760z"/>
<path style="fill:#565656; stroke:none;" d="M599 762L600 763L599 762z"/>
<path style="fill:#9a9a9a; stroke:none;" d="M600 763L601 764L600 763z"/>
<path style="fill:#737373; stroke:none;" d="M820 764L821 765L820 764z"/>
<path style="fill:#959595; stroke:none;" d="M603 767L604 768L603 767z"/>
<path style="fill:#727272; stroke:none;" d="M823 768L824 769L823 768z"/>
<path style="fill:#909090; stroke:none;" d="M606 771L607 772L606 771z"/>
<path style="fill:#727272; stroke:none;" d="M826 772L827 773L826 772z"/>
<path style="fill:#8b8b8b; stroke:none;" d="M609 775L610 776L609 775z"/>
<path style="fill:#727272; stroke:none;" d="M829 776L830 777L829 776z"/>
<path style="fill:#868686; stroke:none;" d="M612 779L613 780L612 779z"/>
<path style="fill:#727272; stroke:none;" d="M832 780L833 781L832 780z"/>
<path style="fill:#818181; stroke:none;" d="M615 783L616 784L615 783z"/>
<path style="fill:#727272; stroke:none;" d="M835 784L836 785L835 784z"/>
<path style="fill:#7b7b7b; stroke:none;" d="M618 787L619 788L618 787z"/>
<path style="fill:#717171; stroke:none;" d="M838 788L839 789L838 788z"/>
<path style="fill:#767676; stroke:none;" d="M621 791L622 792L621 791z"/>
<path style="fill:#717171; stroke:none;" d="M841 792L842 793L841 792M624 795L625 796L624 795M844 796L845 797L844 796z"/>
<path style="fill:#6c6c6c; stroke:none;" d="M627 799L628 800L627 799z"/>
<path style="fill:#717171; stroke:none;" d="M847 800L848 801L847 800z"/>
<path style="fill:#676767; stroke:none;" d="M630 803L631 804L630 803z"/>
<path style="fill:#a9a9a9; stroke:none;" d="M631 804L632 805L631 804z"/>
<path style="fill:#717171; stroke:none;" d="M850 804L851 805L850 804z"/>
<path style="fill:#626262; stroke:none;" d="M633 807L634 808L633 807z"/>
<path style="fill:#a9a9a9; stroke:none;" d="M634 808L635 809L634 808z"/>
<path style="fill:#707070; stroke:none;" d="M853 808L854 809L853 808z"/>
<path style="fill:#565656; stroke:none;" d="M636 811L637 812L636 811z"/>
<path style="fill:#9c9c9c; stroke:none;" d="M637 812L638 813L637 812z"/>
<path style="fill:#707070; stroke:none;" d="M856 812L857 813L856 812z"/>
<path style="fill:#565656; stroke:none;" d="M639 815L640 816L639 815z"/>
<path style="fill:#979797; stroke:none;" d="M640 816L641 817L640 816z"/>
<path style="fill:#707070; stroke:none;" d="M859 816L860 817L859 816z"/>
<path style="fill:#929292; stroke:none;" d="M643 820L644 821L643 820z"/>
<path style="fill:#707070; stroke:none;" d="M862 820L863 821L862 820z"/>
<path style="fill:#8d8d8d; stroke:none;" d="M646 824L647 825L646 824z"/>
<path style="fill:#6f6f6f; stroke:none;" d="M865 824L866 825L865 824z"/>
<path style="fill:#808080; stroke:none;" d="M279 826L279 827L465 827L447 826L410 826L279 826M648 826L648 827L867 827L846 826L802 826L648 826z"/>
</svg>
